<svg width="21" height="20" viewBox="0 0 21 20" fill="none" xmlns="http://www.w3.org/2000/svg">
<path d="M14.6398 10.8472C15.3898 10.8472 16.0498 10.4429 16.3898 9.83153L19.9698 3.43167C20.3398 2.78083 19.8598 1.97222 19.0998 1.97222H4.29984L3.35984 0H0.0898438V1.97222H2.08984L5.68984 9.45681L4.33984 11.8629C3.60984 13.1843 4.56984 14.7917 6.08984 14.7917H18.0898V12.8194H6.08984L7.18984 10.8472H14.6398ZM5.24984 3.94444H17.3998L14.6398 8.875H7.61984L5.24984 3.94444ZM6.08984 15.7778C4.98984 15.7778 4.09984 16.6653 4.09984 17.75C4.09984 18.8347 4.98984 19.7222 6.08984 19.7222C7.18984 19.7222 8.08984 18.8347 8.08984 17.75C8.08984 16.6653 7.18984 15.7778 6.08984 15.7778ZM16.0898 15.7778C14.9898 15.7778 14.0998 16.6653 14.0998 17.75C14.0998 18.8347 14.9898 19.7222 16.0898 19.7222C17.1898 19.7222 18.0898 18.8347 18.0898 17.75C18.0898 16.6653 17.1898 15.7778 16.0898 15.7778Z" fill="white"/>
</svg>
