<svg width="16" height="14" viewBox="0 0 16 14" fill="none" xmlns="http://www.w3.org/2000/svg">
<path d="M2 3.5C2.39782 3.5 2.77936 3.34196 3.06066 3.06066C3.34196 2.77936 3.5 2.39782 3.5 2C3.5 1.60218 3.34196 1.22064 3.06066 0.93934C2.77936 0.658035 2.39782 0.5 2 0.5C1.60218 0.5 1.22064 0.658035 0.93934 0.93934C0.658035 1.22064 0.5 1.60218 0.5 2C0.5 2.39782 0.658035 2.77936 0.93934 3.06066C1.22064 3.34196 1.60218 3.5 2 3.5ZM6 1C5.44688 1 5 1.44687 5 2C5 2.55312 5.44688 3 6 3H15C15.5531 3 16 2.55312 16 2C16 1.44687 15.5531 1 15 1H6ZM6 6C5.44688 6 5 6.44688 5 7C5 7.55312 5.44688 8 6 8H15C15.5531 8 16 7.55312 16 7C16 6.44688 15.5531 6 15 6H6ZM6 11C5.44688 11 5 11.4469 5 12C5 12.5531 5.44688 13 6 13H15C15.5531 13 16 12.5531 16 12C16 11.4469 15.5531 11 15 11H6ZM2 13.5C2.39782 13.5 2.77936 13.342 3.06066 13.0607C3.34196 12.7794 3.5 12.3978 3.5 12C3.5 11.6022 3.34196 11.2206 3.06066 10.9393C2.77936 10.658 2.39782 10.5 2 10.5C1.60218 10.5 1.22064 10.658 0.93934 10.9393C0.658035 11.2206 0.5 11.6022 0.5 12C0.5 12.3978 0.658035 12.7794 0.93934 13.0607C1.22064 13.342 1.60218 13.5 2 13.5ZM3.5 7C3.5 6.80302 3.4612 6.60796 3.38582 6.42597C3.31044 6.24399 3.19995 6.07863 3.06066 5.93934C2.92137 5.80005 2.75601 5.68956 2.57403 5.61418C2.39204 5.5388 2.19698 5.5 2 5.5C1.80302 5.5 1.60796 5.5388 1.42597 5.61418C1.24399 5.68956 1.07863 5.80005 0.93934 5.93934C0.800052 6.07863 0.689563 6.24399 0.614181 6.42597C0.538799 6.60796 0.5 6.80302 0.5 7C0.5 7.19698 0.538799 7.39204 0.614181 7.57403C0.689563 7.75601 0.800052 7.92137 0.93934 8.06066C1.07863 8.19995 1.24399 8.31044 1.42597 8.38582C1.60796 8.4612 1.80302 8.5 2 8.5C2.19698 8.5 2.39204 8.4612 2.57403 8.38582C2.75601 8.31044 2.92137 8.19995 3.06066 8.06066C3.19995 7.92137 3.31044 7.75601 3.38582 7.57403C3.4612 7.39204 3.5 7.19698 3.5 7Z" fill="white"/>
</svg>
