<svg width="24" height="24" viewBox="0 0 24 24" fill="none" xmlns="http://www.w3.org/2000/svg">
<path d="M5.62924 6.70488L5.63061 6.70339C6.27934 5.99608 7.14889 5.57323 8.06842 5.50867C8.97859 5.44477 9.88257 5.7357 10.6085 6.33193L10.6106 6.33415L10.6342 6.35366C10.771 6.46645 10.9007 6.5888 11.0226 6.71994C11.0228 6.72018 11.023 6.72041 11.0232 6.72065L11.6262 7.37541L11.9936 7.77427L12.3614 7.37588L12.9587 6.72898L12.9595 6.72806C13.3126 6.34376 13.7339 6.04009 14.1976 5.83373C14.6612 5.62741 15.1584 5.52221 15.6597 5.52359C16.1611 5.52497 16.6578 5.6329 17.1204 5.84179C17.5831 6.05071 18.003 6.35673 18.3542 6.74302L18.3558 6.74485C19.0843 7.53823 19.497 8.60369 19.5 9.71842C19.503 10.8324 19.0966 11.8997 18.3732 12.6973L12.13 19.4496L12.1296 19.45C12.0944 19.4882 12.0569 19.5 12.026 19.5C11.9952 19.5 11.9577 19.4882 11.9224 19.45L11.9221 19.4497L5.64354 12.6563L5.64344 12.6562C4.12343 11.0125 4.11904 8.33811 5.62924 6.70488ZM17.8286 12.072L17.8286 12.072L17.834 12.0661C19.0194 10.774 19.0185 8.67939 17.8192 7.37871C17.5441 7.0732 17.2118 6.82781 16.8414 6.65875C16.4698 6.48917 16.0684 6.40031 15.6617 6.3984C15.255 6.39648 14.8528 6.48157 14.4798 6.64768C14.1071 6.81363 13.772 7.05662 13.4939 7.36051C13.4937 7.36072 13.4935 7.36094 13.4933 7.36116L12.8994 8.00637C12.8993 8.0065 12.8992 8.00663 12.899 8.00675C12.7786 8.13708 12.6362 8.23909 12.481 8.3082C12.3257 8.37734 12.1599 8.41254 11.9931 8.41254C11.8264 8.41254 11.6606 8.37734 11.5053 8.3082C11.3499 8.23902 11.2073 8.13688 11.0869 8.00637L11.0868 8.00626L10.4845 7.35418C10.2098 7.04939 9.878 6.8046 9.50823 6.63597C9.13735 6.46682 8.73673 6.37818 8.33076 6.37627C7.9248 6.37435 7.5234 6.45921 7.15102 6.62489C6.77873 6.79053 6.44399 7.03312 6.16615 7.33657L6.16614 7.33656L6.16363 7.33934C5.58926 7.97614 5.2742 8.8173 5.27728 9.68627C5.28036 10.5552 5.60137 11.394 6.18036 12.0264L6.18035 12.0264L6.18191 12.0281L11.657 17.9533L12.0242 18.3506L12.3914 17.9534L17.8286 12.072Z" fill="#B1B1B1" stroke="#B1B1B1"/>
</svg>
