<svg width="22" height="19" viewBox="0 0 22 19" fill="none" xmlns="http://www.w3.org/2000/svg">
<path d="M15.3148 0C13.4878 0 11.7343 0.827044 10.5898 2.13398C9.44534 0.827044 7.69184 0 5.86484 0C2.63084 0 0.0898438 2.47092 0.0898438 5.61573C0.0898438 9.47526 3.65984 12.6201 9.06734 17.3985L10.5898 18.7361L12.1123 17.3883C17.5198 12.6201 21.0898 9.47526 21.0898 5.61573C21.0898 2.47092 18.5488 0 15.3148 0ZM10.6948 15.8772L10.5898 15.9793L10.4848 15.8772C5.48684 11.4765 2.18984 8.56654 2.18984 5.61573C2.18984 3.57365 3.76484 2.04208 5.86484 2.04208C7.48184 2.04208 9.05684 3.05291 9.61334 4.45174H11.5768C12.1228 3.05291 13.6978 2.04208 15.3148 2.04208C17.4148 2.04208 18.9898 3.57365 18.9898 5.61573C18.9898 8.56654 15.6928 11.4765 10.6948 15.8772Z" fill="#71767E"/>
</svg>
