<svg width="21" height="20" viewBox="0 0 21 20" fill="none" xmlns="http://www.w3.org/2000/svg">
<path d="M8.79472 5.30279C9.29982 4.96529 9.89365 4.78516 10.5011 4.78516C11.3157 4.78516 12.0969 5.10875 12.6729 5.68476C13.2489 6.26076 13.5725 7.04199 13.5725 7.85658C13.5725 8.46405 13.3924 9.05788 13.0549 9.56297C12.7174 10.0681 12.2377 10.4617 11.6765 10.6942C11.1153 10.9267 10.4977 10.9875 9.90191 10.869C9.30611 10.7505 8.75884 10.458 8.32929 10.0284C7.89974 9.59886 7.60722 9.05159 7.48871 8.45579C7.37019 7.85999 7.43102 7.24243 7.66349 6.6812C7.89596 6.11997 8.28963 5.64028 8.79472 5.30279Z" fill="#B1B1B1" stroke="#B1B1B1"/>
<path d="M10.5 0C8.52219 0 6.58879 0.58649 4.9443 1.6853C3.29981 2.78412 2.01808 4.3459 1.26121 6.17316C0.504333 8.00042 0.3063 10.0111 0.692152 11.9509C1.078 13.8907 2.03041 15.6725 3.42893 17.0711C4.82746 18.4696 6.60929 19.422 8.5491 19.8078C10.4889 20.1937 12.4996 19.9957 14.3268 19.2388C16.1541 18.4819 17.7159 17.2002 18.8147 15.5557C19.9135 13.9112 20.5 11.9778 20.5 9.99999C20.497 7.34876 19.4424 4.80698 17.5677 2.93227C15.693 1.05756 13.1512 0.0030248 10.5 0V0ZM16.2086 16.3757C16.1943 15.4388 15.8126 14.545 15.1456 13.8868C14.4787 13.2287 13.5799 12.8589 12.6429 12.8571H8.35714C7.42013 12.8589 6.52131 13.2287 5.85435 13.8868C5.18739 14.545 4.80567 15.4388 4.79143 16.3757C3.49612 15.2191 2.58267 13.6963 2.17203 12.009C1.76139 10.3217 1.87293 8.54953 2.49189 6.92704C3.11084 5.30455 4.20802 3.90833 5.63812 2.92326C7.06823 1.93819 8.76382 1.41073 10.5004 1.41073C12.2369 1.41073 13.9325 1.93819 15.3626 2.92326C16.7927 3.90833 17.8899 5.30455 18.5088 6.92704C19.1278 8.54953 19.2393 10.3217 18.8287 12.009C18.418 13.6963 17.5046 15.2191 16.2093 16.3757H16.2086Z" fill="#B1B1B1"/>
</svg>
