<svg width="176" height="48" viewBox="0 0 176 48" fill="none" xmlns="http://www.w3.org/2000/svg">
<path d="M31.8797 4.61998L5.0625 4.55859L4.97538 43.2968L31.7926 43.3582L31.8797 4.61998Z" fill="#DE283B"/>
<path d="M38.1703 20.238L56.6559 20.2803L56.6404 27.2531L38.1547 27.2109L38.1703 20.238ZM38.7929 36.1776L59.692 36.2253L59.6759 43.4195L29.9453 43.3516L30.0325 4.61328L59.0496 4.67972L59.0335 11.8739L38.8474 11.8277L38.7929 36.1776Z" fill="#DE283B"/>
<path d="M58.6094 43.4179L58.6965 4.67969L76.3161 4.72002C80.527 4.72965 84.2375 5.54979 87.4477 7.18049C90.6575 8.77427 93.1643 11.0121 94.9678 13.8939C96.7715 16.7758 97.6687 20.1905 97.6599 24.1382C97.651 28.0489 96.7383 31.4594 94.9218 34.3697C93.1055 37.2434 90.5886 39.4881 87.3712 41.104C84.154 42.6831 80.4401 43.468 76.2289 43.4581L58.6094 43.4179ZM67.602 36.0782L75.8023 36.0969C78.388 36.1028 80.6239 35.6284 82.5099 34.6734C84.4329 33.6816 85.9136 32.283 86.9519 30.4777C88.0273 28.6724 88.5676 26.5522 88.5731 24.1173C88.5786 21.6454 88.0477 19.5228 86.9805 17.7495C85.9505 15.9393 84.4758 14.5524 82.5572 13.5888C80.6757 12.5884 78.442 12.0852 75.8562 12.0793L67.6559 12.0605L67.602 36.0782Z" fill="#DE283B"/>
<path d="M104.102 4.58203L156.823 4.59823L142.622 18.2472L143.657 32.0846L156.736 43.3365L104.016 43.2157L104.102 4.58203Z" fill="#DE283B"/>
<path d="M75.9797 43.459C75.9797 43.459 86.5789 43.375 92.9084 36.5798C99.2382 29.785 98.5848 19.3821 92.9645 11.7568C87.3438 4.13152 73.6289 4.71503 73.6289 4.71503L114.002 4.5C117.439 4.50787 120.4 5.08649 122.884 6.23588C125.368 7.34837 127.285 8.95764 128.633 11.0637C129.981 13.1697 130.652 15.68 130.645 18.5946C130.639 21.4723 129.957 23.961 128.599 26.0609C127.241 28.1238 125.318 29.706 122.829 30.8069C120.34 31.9082 117.376 32.4548 113.939 32.4468L102.255 32.4201L106.213 28.4998L106.18 43.2204L75.9797 43.459ZM121.704 43.2561L112.136 29.1778L121.626 29.1993L131.303 43.2779L121.704 43.2561ZM106.211 29.496L102.271 25.2812L113.461 25.3067C116.204 25.3131 118.253 24.7275 119.609 23.5499C120.965 22.3355 121.645 20.6769 121.65 18.574C121.654 16.4342 120.982 14.7724 119.631 13.5887C118.281 12.405 116.234 11.8101 113.492 11.8038L102.302 11.7782L106.261 7.52602L106.211 29.496Z" fill="white"/>
<path d="M155.701 43.3599C152.767 43.3531 150.046 42.8655 147.538 41.8968C145.066 40.9283 142.913 39.5682 141.078 37.8163C139.279 36.0648 137.87 34.0108 136.85 31.6548C135.866 29.2985 135.376 26.7298 135.383 23.948C135.389 21.1661 135.89 18.5995 136.885 16.2479C137.915 13.8965 139.352 11.8491 141.194 10.1058C143.036 8.36246 145.195 7.01215 147.672 6.05491C150.149 5.09765 152.836 4.62233 155.735 4.62897C158.669 4.63568 161.354 5.12329 163.791 6.09181C166.264 7.06039 168.399 8.4205 170.198 10.1722C172.033 11.9239 173.46 13.9778 174.479 16.334C175.499 18.6545 176.006 21.2235 176 24.0409C175.994 26.8226 175.475 29.407 174.445 31.7944C173.414 34.1457 171.978 36.193 170.136 37.9365C168.329 39.6441 166.187 40.9766 163.711 41.934C161.269 42.8914 158.6 43.3667 155.701 43.3599ZM155.664 35.9775C157.326 35.9812 158.846 35.6993 160.226 35.132C161.642 34.5645 162.881 33.747 163.944 32.6795C165.007 31.6121 165.823 30.3478 166.392 28.8872C166.996 27.4262 167.3 25.8041 167.304 24.0209C167.308 22.2377 167.011 20.6144 166.413 19.1508C165.851 17.6873 165.041 16.4194 163.983 15.347C162.96 14.2748 161.742 13.4517 160.33 12.8779C158.917 12.304 157.38 12.0152 155.718 12.0114C154.057 12.0076 152.518 12.2894 151.103 12.8567C149.723 13.4242 148.502 14.2417 147.439 15.3092C146.376 16.3766 145.542 17.6408 144.938 19.1016C144.369 20.5626 144.083 22.1845 144.079 23.9677C144.075 25.7152 144.354 27.3385 144.916 28.838C145.514 30.3014 146.324 31.5693 147.347 32.6417C148.405 33.7141 149.641 34.5371 151.053 35.1108C152.466 35.6848 154.003 35.9735 155.664 35.9775Z" fill="#DE283B"/>
<path d="M23.4259 6.45735C20.9417 5.30796 17.9808 4.55084 14.5433 4.54297H0V43.4994L6.72212 43.4419L6.74625 32.6506L2.79674 32.6416L6.2704 29.2013L2.8129 25.5026L6.76235 25.5117L6.7927 12.0087L2.84338 11.9996L6.80227 7.74749L6.7927 12.0087L14.0332 12.0252C16.7759 12.0316 18.8225 12.6265 20.1728 13.8102C21.5234 14.9939 22.196 16.6556 22.1914 18.7955C22.1865 20.8984 21.5064 22.557 20.1506 23.7714C18.7948 24.9489 16.7457 25.5346 14.003 25.5282L6.76235 25.5117L6.7529 29.7174L6.74625 32.6506L14.4805 32.6683C14.6205 32.6686 14.7597 32.668 14.8982 32.6665L12.6777 29.3992L22.1673 29.4208L23.2951 31.0615C23.3203 31.0505 23.3454 31.0395 23.3705 31.0284C25.8596 29.9274 27.7831 28.3453 29.1407 26.2823C30.4987 24.1825 31.1807 21.6938 31.1871 18.8161C31.1938 15.9015 30.523 13.3912 29.1746 11.2852C27.8264 9.17912 25.9099 7.56985 23.4259 6.45735Z" fill="white"/>
<path d="M2.79674 32.6416L6.74625 32.6506L6.7529 29.7174L6.2704 29.2013L2.79674 32.6416Z" fill="white"/>
<path fill-rule="evenodd" clip-rule="evenodd" d="M14.8982 32.6665L22.2454 43.4775L31.8447 43.4994L23.2951 31.0615L22.1673 29.4208L12.6777 29.3992L14.8982 32.6665ZM6.2704 29.2013L6.7529 29.7174L6.76235 25.5117L2.8129 25.5026L6.2704 29.2013ZM6.7927 12.0087L6.80227 7.74749L2.84338 11.9996L6.7927 12.0087Z" fill="white"/>
</svg>
