<svg width="20" height="20" viewBox="0 0 20 20" fill="none" xmlns="http://www.w3.org/2000/svg">
<path d="M18.8499 17.6505L14.5866 13.3873C15.6392 12.0729 16.2714 10.4028 16.2714 8.58571C16.2714 4.34273 12.8287 0.9 8.58571 0.9C4.33903 0.9 0.9 4.34276 0.9 8.58571C0.9 12.8287 4.33903 16.2714 8.58571 16.2714C10.4028 16.2714 12.0693 15.6428 13.3836 14.5903L17.6472 18.8503C17.9801 19.1832 18.5171 19.1832 18.8501 18.8505C19.1833 18.5213 19.1833 17.9801 18.8502 17.6508C18.8501 17.6507 18.85 17.6506 18.8499 17.6505ZM8.58571 14.5616C5.28703 14.5616 2.60612 11.8806 2.60612 8.58571C2.60612 5.2907 5.2871 2.60612 8.58571 2.60612C11.8807 2.60612 14.5653 5.29074 14.5653 8.58571C14.5653 11.8806 11.8808 14.5616 8.58571 14.5616Z" fill="white" stroke="#B1B1B1" stroke-width="0.2"/>
</svg>
