<svg width="25" height="24" viewBox="0 0 25 24" fill="none" xmlns="http://www.w3.org/2000/svg">
<g clip-path="url(#clip0_3508_11993)">
<path d="M21.5017 9.4999L21.4999 9.49991L20.0799 9.49991H19.7897L19.6458 9.24798L16.1818 3.1861L15.3141 3.68196L18.211 8.75185L18.6385 9.49991H17.7769H7.2229H6.36119L6.7888 8.75179L9.68659 3.68204L8.81801 3.18599L5.35402 9.24798L5.21006 9.49991H4.9199L3.50045 9.49991C3.50034 9.49991 3.50023 9.49991 3.50012 9.49991C3.4233 9.50004 3.34754 9.51784 3.2787 9.55192C3.20976 9.58606 3.14961 9.63561 3.1029 9.69674C3.0562 9.75787 3.0242 9.82893 3.00938 9.90442C2.99458 9.9798 2.99732 10.0576 3.01739 10.1317C3.01741 10.1318 3.01744 10.1319 3.01747 10.132L5.81597 20.3942C5.81602 20.3944 5.81606 20.3946 5.8161 20.3947C5.9035 20.7119 6.09241 20.9917 6.35395 21.1913C6.6156 21.391 6.93552 21.4994 7.26468 21.4999H17.7369C18.4092 21.4999 19.0058 21.046 19.1845 20.3933L21.5017 9.4999ZM21.5017 9.4999C21.5785 9.49963 21.6543 9.51712 21.7232 9.551C21.7921 9.58488 21.8522 9.63423 21.8989 9.6952C21.9456 9.75618 21.9775 9.82712 21.9922 9.90248C22.0069 9.97784 22.004 10.0556 21.9837 10.1296L21.9835 10.1303L19.1846 20.393L21.5017 9.4999ZM17.2359 20.4999V20.9999H18.2359V20.0669L20.6723 11.1314L20.8445 10.4999H20.1899H4.8099H4.15531L4.32751 11.1314L6.78151 20.1314L6.88198 20.4999H7.2639H17.2359Z"  stroke="#B1B1B1"/>
<path d="M10 13.5H11V17.5H10V13.5ZM14 13.5H15V17.5H14V13.5Z" fill="#B1B1B1" stroke="#B1B1B1"/>
</g>
<defs>
<clipPath id="clip0_3508_11993">
<rect width="24" height="24" fill="white" transform="translate(0.5)"/>
</clipPath>
</defs>
</svg>
